<svg xmlns="http://www.w3.org/2000/svg" width="16" height="16" viewBox="0 0 16 16">
    <path fill="#7E858F" fill-rule="evenodd" d="M12.144 2.9c.549.002.99.44.993.984a1.005 1.005 0 0 1-1.012.996.985.985 0 0 1-.973-1.002.978.978 0 0 1 .992-.978m2.24 5.093h-.001c0-1.045.007-2.09-.005-3.134a3.716 3.716 0 0 0-.1-.882c-.37-1.432-1.602-2.366-3.115-2.37a1195.79 1195.79 0 0 0-6.291.001c-.237 0-.478.02-.708.066-1.506.307-2.535 1.558-2.541 3.103-.008 2.039-.003 4.077-.001 6.116 0 .27-.009.548.036.813.267 1.596 1.545 2.674 3.169 2.678 2.106.005 4.211.003 6.317.001 1.86 0 3.231-1.368 3.239-3.232.004-1.053 0-2.106 0-3.16zm-6.39 7.98c-1.206 0-2.414.046-3.617-.01C2.17 15.859.22 13.979.055 11.773c-.088-1.176-.043-2.36-.05-3.54a320.763 320.763 0 0 1 0-3.44C.017 2.472 1.593.548 3.86.09c.281-.057.573-.083.86-.083C6.91 0 9.1-.006 11.292.008a4.708 4.708 0 0 1 4.514 3.463c.117.429.177.886.18 1.33.02 2.099.014 4.197.008 6.295-.008 2.385-1.511 4.294-3.78 4.788-.37.08-.758.103-1.138.108-1.027.014-2.055.005-3.083.005v-.024zm.016-5.455a2.522 2.522 0 0 0 2.512-2.537 2.527 2.527 0 0 0-2.565-2.513c-1.37.014-2.506 1.174-2.488 2.541a2.522 2.522 0 0 0 2.54 2.51m.016-6.656c2.305.023 4.125 1.89 4.1 4.207-.023 2.25-1.91 4.09-4.17 4.066C5.66 12.11 3.84 10.23 3.864 7.91c.026-2.237 1.91-4.07 4.16-4.048"/>
</svg>
