<svg xmlns="http://www.w3.org/2000/svg" width="133" height="90" viewBox="0 0 133 90">
    <g fill="none" fill-rule="nonzero">
        <path fill="#FFF" d="M0 72.084h4.067V86.35h8.819v3.3H0zM27.956 84.014H17.73a3.178 3.178 0 0 0 1.309 1.985 4.319 4.319 0 0 0 2.56.729 5.173 5.173 0 0 0 1.87-.314 4.587 4.587 0 0 0 1.52-.99l2.094 2.26c-1.275 1.453-3.135 2.181-5.582 2.183a8.79 8.79 0 0 1-4.06-.893 6.527 6.527 0 0 1-2.7-2.462 6.816 6.816 0 0 1-.952-3.59 6.907 6.907 0 0 1 .941-3.579 6.59 6.59 0 0 1 2.585-2.487 8.006 8.006 0 0 1 7.274-.039 6.22 6.22 0 0 1 2.522 2.442 7.326 7.326 0 0 1 .917 3.705c0 .06-.024.408-.073 1.05zm-9.171-4.343a3.213 3.213 0 0 0-1.102 2.058h6.655a3.251 3.251 0 0 0-1.105-2.048 3.31 3.31 0 0 0-2.212-.764 3.38 3.38 0 0 0-2.236.754zM39.356 89.013c-.427.305-.91.523-1.42.642a7.125 7.125 0 0 1-1.769.213c-1.609 0-2.852-.411-3.729-1.232-.876-.82-1.316-2.027-1.318-3.617v-5.55h-2.093v-3.014h2.093v-3.29h3.917v3.29h3.366v3.014h-3.366v5.5c-.03.48.127.954.44 1.32.329.323.78.492 1.242.463.57.017 1.127-.16 1.583-.502l1.054 2.763zM42.823 89.452a8.47 8.47 0 0 1-2.56-1.046l1.304-2.812c.678.42 1.414.737 2.184.942.817.233 1.662.35 2.512.349 1.66 0 2.487-.408 2.487-1.228a.872.872 0 0 0-.677-.83 9.952 9.952 0 0 0-2.093-.426c-.925-.13-1.84-.323-2.738-.579a4.245 4.245 0 0 1-1.87-1.155 3.293 3.293 0 0 1-.792-2.361 3.68 3.68 0 0 1 .743-2.271 4.716 4.716 0 0 1 2.16-1.545 9.181 9.181 0 0 1 3.352-.555c.958 0 1.914.106 2.85.314a7.908 7.908 0 0 1 2.348.868l-1.305 2.791a7.8 7.8 0 0 0-3.893-1.005 3.97 3.97 0 0 0-1.884.35 1.047 1.047 0 0 0-.628.903.9.9 0 0 0 .677.879c.705.224 1.429.384 2.163.478.914.142 1.82.34 2.71.59a4.085 4.085 0 0 1 1.835 1.14c.549.641.827 1.47.778 2.313.01.809-.256 1.597-.753 2.236a4.807 4.807 0 0 1-2.198 1.517 9.813 9.813 0 0 1-3.43.541 13.14 13.14 0 0 1-3.282-.398zM54.652 89.163a2.386 2.386 0 0 1-.697-1.744 2.295 2.295 0 0 1 .697-1.745 2.588 2.588 0 0 1 3.468 0c.47.456.724 1.09.697 1.745a2.386 2.386 0 0 1-.697 1.744c-.965.94-2.503.94-3.468 0zM64.573 75.401h-5.62v-3.317h15.314V75.4h-5.626v14.25h-4.068zM81.513 76.455c.874-.35 1.81-.521 2.752-.503v3.618c-.436-.035-.729-.05-.879-.05a3.586 3.586 0 0 0-2.637.943c-.637.628-.956 1.57-.956 2.825v6.363h-3.917V76.155h3.743v1.782a4.35 4.35 0 0 1 1.894-1.482zM96.799 77.442c1.118.995 1.679 2.498 1.681 4.507v7.702h-3.666V87.97c-.737 1.256-2.11 1.883-4.12 1.883a6.384 6.384 0 0 1-2.7-.526 4.026 4.026 0 0 1-1.744-1.458 3.792 3.792 0 0 1-.603-2.11 3.516 3.516 0 0 1 1.42-2.962c.946-.72 2.406-1.08 4.38-1.082h3.116a2.505 2.505 0 0 0-.778-1.97c-.521-.466-1.3-.698-2.337-.698a6.795 6.795 0 0 0-2.121.348c-.64.199-1.24.51-1.772.918l-1.396-2.739a8.393 8.393 0 0 1 2.651-1.203 11.792 11.792 0 0 1 3.175-.43c2.086.008 3.69.508 4.814 1.5zm-3.342 9.317a2.54 2.54 0 0 0 1.106-1.37v-1.396h-2.686c-1.608 0-2.414.53-2.414 1.584-.017.472.206.921.593 1.193a2.648 2.648 0 0 0 1.618.44 3.405 3.405 0 0 0 1.783-.444v-.007zM115.936 71.03v18.621h-3.743v-1.556c-.97 1.163-2.376 1.745-4.217 1.745a7.022 7.022 0 0 1-3.454-.855 6.098 6.098 0 0 1-2.424-2.442 8.086 8.086 0 0 1 0-7.326 6.087 6.087 0 0 1 2.424-2.441 7.022 7.022 0 0 1 3.454-.855c1.723 0 3.07.544 4.043 1.632V71.03h3.917zm-4.82 14.606a4.294 4.294 0 0 0 0-5.452 3.523 3.523 0 0 0-4.95 0 4.294 4.294 0 0 0 0 5.452 3.523 3.523 0 0 0 4.95 0zM132.715 84.014h-10.224a3.178 3.178 0 0 0 1.308 1.985 4.319 4.319 0 0 0 2.56.729 5.173 5.173 0 0 0 1.87-.314 4.535 4.535 0 0 0 1.521-.99l2.093 2.26c-1.274 1.453-3.135 2.181-5.581 2.183a8.79 8.79 0 0 1-4.043-.893 6.527 6.527 0 0 1-2.714-2.473 6.816 6.816 0 0 1-.953-3.59 6.907 6.907 0 0 1 .942-3.578 6.59 6.59 0 0 1 2.585-2.488 8.006 8.006 0 0 1 7.273-.038 6.22 6.22 0 0 1 2.522 2.442c.63 1.131.947 2.41.918 3.704-.004.07-.028.42-.077 1.061zm-9.167-4.343a3.202 3.202 0 0 0-1.106 2.058h6.656a3.251 3.251 0 0 0-1.106-2.048 3.31 3.31 0 0 0-2.212-.764 3.363 3.363 0 0 0-2.232.754zM88.13 39.534l-2.128 4.768-7.444 2.093 2.676 3.37 6.896-.579 1.476 2.093-3.14 2.557 6.513 7.79 1.974-8.254-2.441-7.21z"/>
        <path fill="#FFF" d="M122.407 21.774l-7.81-2.961-7.62-7.566L73.295.059 73.116 0 46.905 20.599 34.23 20.04l-14.65 8.372 3.488-6.743-7.675-4.071 4.884 4.768-5.581 11.627 13.022-6.513-5.582 6.862 7.44 10.58-5.856 5.467 6.09 6.394-2.092 4.883h10.929l-1.047-3.02-4.999-4.42 3.604-2.208 8.142-.817 7.092-7.555 7.21-.698 1.277 5.348 10.814 7.789-.928 2.093.349 3.488h13.022l-1.047-2.79-3.952-3.14-3.607-5.114 2.055-4.618 8.654-2.296 5.83-11.773-2.164-7.5 2.442-2.655-1.147 3.395 2.933 6.568-.14 5.037 7.054 5.397 2.903-6.007 5.142-3.942 2.152-6.799L120 26.9h.122l11.39-6.565z"/>
        <path fill="#F00" d="M70.985 33.792h1.723v2.69h-1.723z"/>
        <path fill="#F00" d="M71.672 34.203h1v4.758h-1z"/>
        <path fill="#00BC00" d="M109.364 16.95h1.723v2.69h-1.723z"/>
        <path fill="#00BC00" d="M110.051 17.365h1v4.758h-1zM68.138 32.881h1.723v2.128h-1.723z"/>
        <path fill="#00BC00" d="M68.826 32.062h1v3.931h-1z"/>
        <path fill="#F00" d="M112.629 19.859h1.723v2.128h-1.723z"/>
        <path fill="#F00" d="M113.32 19.04h1v3.931h-1z"/>
        <path fill="#00BC00" d="M118.793 21.698h1.723v2.128h-1.723z"/>
        <path fill="#00BC00" d="M119.484 20.878h1v3.931h-1z"/>
        <path fill="#F00" d="M87.244 20.714h1.723v2.128h-1.723z"/>
        <path fill="#F00" d="M87.931 19.898h1v3.931h-1zM52.748 34.737h1.723v4.371h-1.723z"/>
        <path fill="#F00" d="M53.473 32.888h1v8.069h-1z"/>
        <path fill="#00BC00" d="M28.392 35.983h1.723v4.371h-1.723z"/>
        <path fill="#00BC00" d="M29.117 34.134h1v8.069h-1zM79.469 17.055h1.723v8.124h-1.723z"/>
        <path fill="#00BC00" d="M80.159 15.419h1v12.886h-1z"/>
        <path fill="#F00" d="M49.364 32.114h1.723v8.124h-1.723z"/>
        <path fill="#F00" d="M50.055 30.478h1v12.886h-1z"/>
        <path fill="#00BC00" d="M76.706 25.071h1.723v8.124h-1.723z"/>
        <path fill="#00BC00" d="M77.393 23.435h1v12.886h-1z"/>
        <path fill="#F00" d="M73.8 28.329h1.723v9.042H73.8z"/>
        <path fill="#F00" d="M74.487 27.44h1v10.821h-1zM83.226 13.301h1.723v9.042h-1.723z"/>
        <path fill="#F00" d="M83.916 12.412h1v10.821h-1z"/>
        <path fill="#00BC00" d="M56.062 36.506h1.723v2.69h-1.723z"/>
        <path fill="#00BC00" d="M56.752 36.921h1v4.758h-1z"/>
        <path fill="#F00" d="M25.866 31.207h1.723v2.69h-1.723z"/>
        <path fill="#F00" d="M26.557 31.619h1v4.758h-1z"/>
        <path fill="#00BC00" d="M62.351 23.351h1.723v8.124h-1.723z"/>
        <path fill="#00BC00" d="M63.042 21.715h1v12.886h-1z"/>
        <path fill="#F00" d="M59.002 27.16h1.723v9.042h-1.723z"/>
        <path fill="#F00" d="M59.69 26.274h1v10.821h-1z"/>
        <path fill="#00BC00" d="M65.288 29.683h1.723v9.855h-1.723z"/>
        <path fill="#00BC00" d="M65.979 27.781h1v13.653h-1z"/>
        <path fill="#F00" d="M32.121 33.666h1.723v9.855h-1.723z"/>
        <path fill="#F00" d="M32.812 31.765h1v13.653h-1zM46.894 34.381h1.723v2.128h-1.723z"/>
        <path fill="#F00" d="M47.581 33.562h1v3.931h-1z"/>
        <path fill="#00BC00" d="M34.817 38.006h1.723v2.69h-1.723z"/>
        <path fill="#00BC00" d="M35.508 38.421h1v4.758h-1zM115.252 19.758h1.723v2.69h-1.723z"/>
        <path fill="#00BC00" d="M115.943 20.173h1v4.758h-1z"/>
        <path fill="#F00" d="M41.107 24.851h1.723v8.124h-1.723z"/>
        <path fill="#F00" d="M41.798 23.215h1v12.886h-1zM37.758 28.66h1.723v9.042h-1.723z"/>
        <path fill="#F00" d="M38.449 27.771h1v10.821h-1z"/>
        <path fill="#00BC00" d="M44.048 31.183h1.723v9.855h-1.723z"/>
        <path fill="#00BC00" d="M44.735 29.281h1v13.653h-1z"/>
        <path fill="#F00" d="M92.156 19.535h1.723v4.371h-1.723z"/>
        <path fill="#F00" d="M92.881 17.686h1v8.069h-1z"/>
        <path fill="#00BC00" d="M95.163 19.064h1.723v9.855h-1.723z"/>
        <path fill="#00BC00" d="M95.85 17.166h1v13.653h-1z"/>
        <path fill="#F00" d="M107.037 14.271h1.723v2.128h-1.723z"/>
        <path fill="#F00" d="M107.728 13.455h1v3.931h-1z"/>
        <path fill="#00BC00" d="M97.859 23.407h1.723v2.69h-1.723z"/>
        <path fill="#00BC00" d="M98.547 23.819h1v4.758h-1z"/>
        <path fill="#F00" d="M104.149 12.883h1.723v8.124h-1.723z"/>
        <path fill="#F00" d="M104.836 11.243h1v12.886h-1zM100.797 14.062h1.723v9.042h-1.723z"/>
        <path fill="#F00" d="M101.487 13.172h1v10.821h-1z"/>
        <path fill="#FFF" d="M9.007 16.43l-2.08-5.804 6.113.823.474 4.507z"/>
        <path fill="#FFF" d="M13.964 16.26l-4.301.453 5.836.785-1.989-5.543z"/>
    </g>
</svg>
