<svg xmlns="http://www.w3.org/2000/svg" width="16" height="14" viewBox="0 0 16 14">
    <g fill="none" fill-rule="nonzero">
        <path fill="#7E858F" d="M15.967.667l-2.498 12.75s-.107.583-.83.583c-.384 0-.582-.183-.582-.183L6.648 9.33 4.001 7.995.605 7.09S0 6.917 0 6.417C0 6 .622 5.8.622 5.8L14.832.156s.435-.157.751-.156c.195 0 .417.083.417.333 0 .167-.033.334-.033.334z"/>
        <path fill="#7E858F" fill-opacity=".4" d="M8.667 11.003l-2.284 2.25s-.1.076-.232.08a.33.33 0 0 1-.146-.029l.642-3.977 2.02 1.676z"/>
        <path fill="#5D636C" d="M13.265 2.797a.333.333 0 0 0-.468-.062L4 8s1.404 3.928 1.618 4.608c.215.68.387.697.387.697l.642-3.977 6.555-6.064a.333.333 0 0 0 .063-.467z"/>
    </g>
</svg>
