<svg xmlns="http://www.w3.org/2000/svg" width="16" height="14" viewBox="0 0 16 14">
    <path fill="#7E858F" fill-rule="evenodd" d="M1.38 4.64c-.302-.48-.54-.963-.648-1.508A3.417 3.417 0 0 1 1.04.872C1.227.5 1.382.48 1.654.8 2.78 2.119 4.17 3.044 5.833 3.537c.562.167 1.147.26 1.716.387.033-.42.027-.786.096-1.14.502-2.579 3.59-3.664 5.59-1.966.153.13.284.175.466.1.481-.2.961-.403 1.448-.589.114-.043.3-.075.369-.016.073.064.099.266.054.367-.158.365-.355.712-.552 1.093.197-.072.394-.166.6-.213.118-.027.253.02.38.035-.016.12.011.28-.055.356a33.45 33.45 0 0 1-1.31 1.414c-.12.122-.18.224-.179.397.025 4.053-2.618 7.775-6.403 8.927-2.691.819-5.285.532-7.726-.909-.046-.026-.087-.057-.134-.082-.147-.08-.251-.212-.157-.357.057-.088.228-.152.342-.143 1.061.08 2.087-.047 3.068-.47.269-.116.525-.26.827-.412-.25-.095-.453-.16-.646-.248a3.354 3.354 0 0 1-1.8-1.903c-.152-.39-.074-.505.398-.517-.112-.085-.19-.142-.267-.204C1.128 6.768.673 5.902.64 4.826c-.012-.373.146-.464.489-.301.083.04.167.076.252.114"/>
</svg>
